<svg xmlns="http://www.w3.org/2000/svg" viewBox="0 0 500 500"><g id="freepik--background-simple--inject-103"><path d="M466.11,193.94c-16.24-53.08-58-95.57-107.4-118C311.57,54.6,252,44,207.31,76.93c-29.41,21.65-46.06,56.35-73,80.64-13.39,12.07-28,16-44,23.22-38.81,17.6-71.29,51.54-74,96.31C11.93,352,71.27,403.74,137.49,420.73c87.5,22.44,152.9,22.44,213-1.8,31.21-12.59,63-28.51,85.48-54.58,34-39.42,43.43-95.42,35.69-146A171.56,171.56,0,0,0,466.11,193.94Z" style="fill:#F04D00"></path><path d="M466.11,193.94c-16.24-53.08-58-95.57-107.4-118C311.57,54.6,252,44,207.31,76.93c-29.41,21.65-46.06,56.35-73,80.64-13.39,12.07-28,16-44,23.22-38.81,17.6-71.29,51.54-74,96.31C11.93,352,71.27,403.74,137.49,420.73c87.5,22.44,152.9,22.44,213-1.8,31.21-12.59,63-28.51,85.48-54.58,34-39.42,43.43-95.42,35.69-146A171.56,171.56,0,0,0,466.11,193.94Z" style="fill:#fff;opacity:0.8"></path></g><g id="freepik--Graphics--inject-103"><polyline points="354.73 139.12 398.49 95.37 441.38 95.37" style="fill:none;stroke:#263238;stroke-linejoin:round"></polyline><circle cx="441.5" cy="95.06" r="3.75" style="fill:#263238;stroke:#263238;stroke-linejoin:round"></circle><line x1="440.21" y1="105.13" x2="465.84" y2="105.13" style="fill:#263238;stroke:#263238;stroke-linejoin:round"></line><line x1="440.21" y1="111.07" x2="465.84" y2="111.07" style="fill:#263238;stroke:#263238;stroke-linejoin:round"></line><line x1="440.21" y1="117" x2="465.84" y2="117" style="fill:#263238;stroke:#263238;stroke-linejoin:round"></line><line x1="440.21" y1="122.94" x2="465.84" y2="122.94" style="fill:#263238;stroke:#263238;stroke-linejoin:round"></line><polyline points="102.53 284.1 94.8 302.12 45.05 302.12" style="fill:none;stroke:#263238;stroke-linejoin:round"></polyline><circle cx="45.05" cy="302.12" r="3.75" style="fill:#263238;stroke:#263238;stroke-linejoin:round"></circle><line x1="33.21" y1="313.13" x2="58.84" y2="313.13" style="fill:#263238;stroke:#263238;stroke-linejoin:round"></line><line x1="33.21" y1="319.07" x2="58.84" y2="319.07" style="fill:#263238;stroke:#263238;stroke-linejoin:round"></line><line x1="33.21" y1="325" x2="58.84" y2="325" style="fill:#263238;stroke:#263238;stroke-linejoin:round"></line><line x1="33.21" y1="330.94" x2="58.84" y2="330.94" style="fill:#263238;stroke:#263238;stroke-linejoin:round"></line><line x1="149.71" y1="428.22" x2="149.71" y2="460.82" style="fill:none;stroke:#263238;stroke-linejoin:round"></line><circle cx="149.89" cy="459.93" r="3.75" style="fill:#263238;stroke:#263238;stroke-linejoin:round"></circle><line x1="113.37" y1="449.12" x2="139" y2="449.12" style="fill:#263238;stroke:#263238;stroke-linejoin:round"></line><line x1="113.37" y1="455.06" x2="139" y2="455.06" style="fill:#263238;stroke:#263238;stroke-linejoin:round"></line><line x1="113.37" y1="461" x2="139" y2="461" style="fill:#263238;stroke:#263238;stroke-linejoin:round"></line><line x1="113.37" y1="466.94" x2="139" y2="466.94" style="fill:#263238;stroke:#263238;stroke-linejoin:round"></line><polyline points="310.87 417.87 331.57 417.87 331.57 444.52 366.74 444.52" style="fill:none;stroke:#263238;stroke-linejoin:round"></polyline><circle cx="367.61" cy="444.47" r="3.75" style="fill:#263238;stroke:#263238;stroke-linejoin:round"></circle><line x1="377.37" y1="435.12" x2="403" y2="435.12" style="fill:#263238;stroke:#263238;stroke-linejoin:round"></line><line x1="377.37" y1="441.06" x2="403" y2="441.06" style="fill:#263238;stroke:#263238;stroke-linejoin:round"></line><line x1="377.37" y1="447" x2="403" y2="447" style="fill:#263238;stroke:#263238;stroke-linejoin:round"></line><line x1="377.37" y1="452.94" x2="403" y2="452.94" style="fill:#263238;stroke:#263238;stroke-linejoin:round"></line><line x1="392.21" y1="390.06" x2="448.05" y2="390.06" style="fill:none;stroke:#8f8f8f;stroke-miterlimit:10"></line><line x1="420.17" y1="390.06" x2="420.17" y2="362.33" style="fill:none;stroke:#8f8f8f;stroke-miterlimit:10"></line><circle cx="392.21" cy="390.06" r="10.25" transform="translate(-118.87 178.47) rotate(-22.35)" style="fill:#fff;stroke:#8f8f8f;stroke-miterlimit:10"></circle><path d="M400.35,396.27l-8.41-4.77V379.82a10.25,10.25,0,1,0,8.41,16.45Z" style="fill:#F04D00;stroke:#8f8f8f;stroke-miterlimit:10"></path><path d="M398.22,390.06a6,6,0,1,1-6-6A6,6,0,0,1,398.22,390.06Z" style="fill:#fff;stroke:#8f8f8f;stroke-miterlimit:10"></path><circle cx="420.17" cy="390.06" r="10.25" transform="translate(-116.77 189.1) rotate(-22.35)" style="fill:#fff;stroke:#8f8f8f;stroke-miterlimit:10"></circle><path d="M428.31,396.27l-8.42-4.77V379.82a10.25,10.25,0,1,0,8.42,16.45Z" style="fill:#F04D00;stroke:#8f8f8f;stroke-miterlimit:10"></path><path d="M426.18,390.06a6,6,0,1,1-6-6A6,6,0,0,1,426.18,390.06Z" style="fill:#fff;stroke:#8f8f8f;stroke-miterlimit:10"></path><circle cx="448.12" cy="390.06" r="10.25" transform="translate(-27.48 746.1) rotate(-77.86)" style="fill:#fff;stroke:#8f8f8f;stroke-miterlimit:10"></circle><path d="M456.26,396.27l-8.41-4.77V379.82a10.25,10.25,0,1,0,8.41,16.45Z" style="fill:#F04D00;stroke:#8f8f8f;stroke-miterlimit:10"></path><path d="M454.13,390.06a6,6,0,1,1-6-6A6,6,0,0,1,454.13,390.06Z" style="fill:#fff;stroke:#8f8f8f;stroke-miterlimit:10"></path><polygon points="408.23 361.86 390.33 361.86 390.33 341.33 395.04 336.8 408.23 336.8 408.23 361.86" style="fill:#fff;stroke:#8f8f8f;stroke-linecap:round;stroke-linejoin:round"></polygon><polygon points="390.33 341.33 395.19 341.33 395.19 336.8 390.33 341.33" style="fill:#fff;stroke:#8f8f8f;stroke-linecap:round;stroke-linejoin:round"></polygon><polygon points="427.8 361.86 409.9 361.86 409.9 341.33 414.61 336.8 427.8 336.8 427.8 361.86" style="fill:#fff;stroke:#8f8f8f;stroke-linecap:round;stroke-linejoin:round"></polygon><polygon points="409.9 341.33 414.76 341.33 414.76 336.8 409.9 341.33" style="fill:#fff;stroke:#8f8f8f;stroke-linecap:round;stroke-linejoin:round"></polygon><polygon points="447.37 361.86 429.47 361.86 429.47 341.33 434.18 336.8 447.37 336.8 447.37 361.86" style="fill:#fff;stroke:#8f8f8f;stroke-linecap:round;stroke-linejoin:round"></polygon><polygon points="429.47 341.33 434.33 341.33 434.33 336.8 429.47 341.33" style="fill:#fff;stroke:#8f8f8f;stroke-linecap:round;stroke-linejoin:round"></polygon><line x1="419.93" y1="277.24" x2="419.93" y2="323.56" style="fill:none;stroke:#263238;stroke-linejoin:round"></line><path d="M423.39,323.23a3.75,3.75,0,1,0-3.75,3.75A3.75,3.75,0,0,0,423.39,323.23Z" style="fill:#263238;stroke:#263238;stroke-linejoin:round"></path></g></svg>